<svg xmlns="http://www.w3.org/2000/svg" width="120" height="80" viewBox="0 0 120 80">
  <path d="M76.428.243l-3.1-.262-3.408.786-3.41 1.31-3.718 5.502-.93 3.93-2.48 7.337-.62 8.908-.929 46.115v1.048-.262l2.17 3.406 1.55 1.048 3.098 1.048h1.55l2.789-1.834 1.86-2.358 1.24-2.62 1.239-2.62 3.409-10.219.93-3.93.93-3.406 2.169-2.62.93-1.048 1.55-1.835-.31-7.074V37.45l-2.48-10.743-.31-2.882-.62-2.358-.93-4.454v-4.716l-.31-4.454V2.863z" fill="#8a0"/>
  <path fill="#a05a2c" d="M90 0h30v79.858H90z"/>
  <path fill="#fea" d="M0 0h50v79.856H0z"/>
</svg>
